<svg xmlns="http://www.w3.org/2000/svg" width="512" height="512" viewBox="0 0 64 64">
      <path d="M32 8 L28 2 L34 6 L36 1 L37 8 Z" fill="#7c1f2c" stroke="#2a0a0e" stroke-width="1.6" stroke-linejoin="round"></path>
      <path d="M20 16 Q9 12 6 2 Q18 6 25 14 Z" fill="#7c1f2c" stroke="#2a0a0e" stroke-width="2" stroke-linejoin="round"></path>
      <path d="M44 16 Q55 12 58 2 Q46 6 39 14 Z" fill="#7c1f2c" stroke="#2a0a0e" stroke-width="2" stroke-linejoin="round"></path>
      <path d="M16 22 Q8 22 4 16 Q14 18 20 22 Z" fill="#7c1f2c" stroke="#2a0a0e" stroke-width="1.8" stroke-linejoin="round"></path>
      <path d="M48 22 Q56 22 60 16 Q50 18 44 22 Z" fill="#7c1f2c" stroke="#2a0a0e" stroke-width="1.8" stroke-linejoin="round"></path>
      <path d="M18 18 L46 18 L44 36 L38 46 L32 54 L26 46 L20 36 Z" fill="#7c1f2c"></path>
      <path d="M18 18 L46 18 L44 36 L38 46 L32 54 L26 46 L20 36 Z" fill="none" stroke="#2a0a0e" stroke-width="2" stroke-linejoin="round"></path>
      <path d="M21 24 L29 28 M43 24 L35 28" stroke="#2a0a0e" stroke-width="2.2" stroke-linecap="round"></path>
      <path d="M23 27 L31 31 L24 32 Z" fill="#e6b53a"></path>
      <path d="M41 27 L33 31 L40 32 Z" fill="#e6b53a"></path>
      <path d="M32 20 L35 23 L32 26 L29 23 Z" fill="#e6b53a" stroke="#2a0a0e" stroke-width="1.4" stroke-linejoin="round"></path>
      <circle cx="32" cy="23" r="1" fill="#2a0a0e"></circle>
      <path d="M25 39 L28 44 L31 39 L34 44 L37 39 L40 44" fill="none" stroke="#2a0a0e" stroke-width="2" stroke-linejoin="round" stroke-linecap="round"></path>
      <path d="M27 39 Q32 36 38 39" fill="none" stroke="#2a0a0e" stroke-width="2" stroke-linecap="round"></path></svg>