<svg xmlns="http://www.w3.org/2000/svg" width="512" height="512" viewBox="0 0 64 64">
      <path d="M22 18 Q12 14 10 4 Q20 8 26 16 Z" fill="#c0432e"></path>
      <path d="M22 18 Q12 14 10 4 Q20 8 26 16 Z" fill="none" stroke="#5c1410" stroke-width="2" stroke-linejoin="round"></path>
      <path d="M42 18 Q52 14 54 4 Q44 8 38 16 Z" fill="#c0432e"></path>
      <path d="M42 18 Q52 14 54 4 Q44 8 38 16 Z" fill="none" stroke="#5c1410" stroke-width="2" stroke-linejoin="round"></path>
      <path d="M18 20 L46 20 L42 34 Q37 45 32 51 Q27 45 22 34 Z" fill="#c0432e"></path>
      <path d="M18 20 L46 20 L42 34 Q37 45 32 51 Q27 45 22 34 Z" fill="none" stroke="#5c1410" stroke-width="2" stroke-linejoin="round"></path>
      <path d="M23 28 L31 31 L24 33 Z" fill="#f0a830"></path>
      <path d="M41 28 L33 31 L40 33 Z" fill="#f0a830"></path>
      <circle cx="27" cy="31" r="1" fill="#5c1410"></circle>
      <circle cx="37" cy="31" r="1" fill="#5c1410"></circle>
      <path d="M21 25 L30 28 M43 25 L34 28" stroke="#5c1410" stroke-width="2" stroke-linecap="round"></path>
      <path d="M26 39 Q32 43 38 39" fill="none" stroke="#5c1410" stroke-width="2" stroke-linecap="round"></path>
      <path d="M28 40 L29.5 43 L31 40 M33 40 L34.5 43 L36 40" fill="none" stroke="#5c1410" stroke-width="1.5" stroke-linejoin="round"></path>
      <path d="M30 47 L32 53 L34 47 Z" fill="#5c1410"></path></svg>