<svg xmlns="http://www.w3.org/2000/svg" width="64" height="64" viewBox="0 0 64 64"><defs><clipPath id="b"><circle cx="32" cy="41" r="15.5"></circle></clipPath></defs><circle cx="32" cy="41" r="15.5" fill="#e9f2f5" stroke="#5b6e74" stroke-width="2"></circle><g clip-path="url(#b)"><rect x="16" y="34" width="32" height="24" fill="#d4624a"></rect><path d="M16 35 Q24 31 32 35 Q40 39 48 35 L48 38 L16 38 Z" fill="#e2856f" opacity="0.9"></path><ellipse cx="26" cy="44" rx="4.5" ry="6" fill="#ffffff" opacity="0.22"></ellipse><circle cx="38" cy="50" r="2" fill="#9a3a26" opacity="0.5"></circle><circle cx="30" cy="53" r="1.4" fill="#9a3a26" opacity="0.5"></circle></g><path d="M27 26 L37 26 L36.5 31 Q32 33 27.5 31 Z" fill="#e9f2f5" stroke="#5b6e74" stroke-width="2" stroke-linejoin="round"></path><path d="M27.5 24 L36.5 24" stroke="#5b6e74" stroke-width="2"></path><rect x="26.5" y="16" width="11" height="8" rx="1.6" fill="#6b3f20" stroke="#3a200f" stroke-width="1.6"></rect><rect x="28" y="13.5" width="8" height="3.5" rx="1.2" fill="#6b3f20" stroke="#3a200f" stroke-width="1.4"></rect><path d="M22 36 Q24 30 30 28" fill="none" stroke="#ffffff" stroke-width="2" opacity="0.55" stroke-linecap="round"></path></svg>