<svg xmlns="http://www.w3.org/2000/svg" width="64" height="64" viewBox="0 0 64 64"><path d="M15 22 Q15 13 26 12 Q30 12 32 15 Q34 12 38 12 Q49 13 49 22 L47 36 Q44 50 32 56 Q20 50 17 36 Z" fill="#e3f0f7" stroke="#2e5870" stroke-width="2.2" stroke-linejoin="round"></path><path d="M27 15 Q32 20 37 15" fill="none" stroke="#2e5870" stroke-width="2" stroke-linecap="round"></path><path d="M32 18 L32 54" stroke="#2e5870" stroke-width="1.8" opacity="0.6"></path><path d="M22 28 Q27 35 31 30" fill="none" stroke="#7fa6bd" stroke-width="2.4" stroke-linecap="round"></path><path d="M42 28 Q37 35 33 30" fill="none" stroke="#7fa6bd" stroke-width="2.4" stroke-linecap="round"></path><path d="M25 40 H39 M27 46 H37" stroke="#7fa6bd" stroke-width="1.8" opacity="0.7" stroke-linecap="round"></path><path d="M17 23 Q19 18 25 17" fill="none" stroke="#7fa6bd" stroke-width="2" opacity="0.6"></path><path d="M47 23 Q45 18 39 17" fill="none" stroke="#7fa6bd" stroke-width="2" opacity="0.6"></path><g fill="#ffffff" opacity="0.9"><path d="M41 24 l1.2 2.6 2.6 1.2 -2.6 1.2 -1.2 2.6 -1.2 -2.6 -2.6 -1.2 2.6 -1.2 Z"></path></g></svg>