<svg xmlns="http://www.w3.org/2000/svg" width="64" height="64" viewBox="0 0 64 64"><ellipse cx="32" cy="60" rx="22" ry="3" fill="#3a2c20" opacity="0.14"></ellipse><path d="M26 58 Q18 56 12 58 M38 58 Q46 56 52 58 M29 58 L24 52 M35 58 L40 52" stroke="#3a2c20" stroke-width="2" fill="none" stroke-linecap="round" opacity="0.6"></path>
      <path d="M25 58 L28 24 L36 24 L39 58 Z" fill="#8a6a4e"></path>
      <path d="M32 24 L36 24 L39 58 L34 58 Z" fill="#3a2c20" opacity="0.16"></path>
      <path d="M25 58 L28 24 L36 24 L39 58 Z" fill="none" stroke="#3a2c20" stroke-width="2" stroke-linejoin="round"></path>
      <path d="M29 50 L29 30 M35 50 L35 30" stroke="#3a2c20" stroke-width="1" opacity="0.3"></path>
      <circle cx="20" cy="20" r="10" fill="#6fa15a" opacity="0.92"></circle>
      <circle cx="32" cy="12" r="12" fill="#6fa15a" opacity="0.92"></circle>
      <circle cx="45" cy="19" r="10" fill="#6fa15a" opacity="0.92"></circle>
      <circle cx="20" cy="20" r="10" fill="none" stroke="#3a2c20" stroke-width="1.6" opacity="0.5"></circle>
      <circle cx="32" cy="12" r="12" fill="none" stroke="#3a2c20" stroke-width="1.6" opacity="0.5"></circle>
      <circle cx="45" cy="19" r="10" fill="none" stroke="#3a2c20" stroke-width="1.6" opacity="0.5"></circle></svg>