<svg xmlns="http://www.w3.org/2000/svg" width="64" height="64" viewBox="0 0 64 64"><ellipse cx="32" cy="60" rx="22" ry="3" fill="#37312b" opacity="0.14"></ellipse><path d="M6 58 L18 50 L26 58 Z" fill="#37312b" opacity="0.24"></path>
    <path d="M6 58 L18 50" fill="none" stroke="#37312b" stroke-width="1.3" opacity="0.55" stroke-linecap="round"></path><rect x="16" y="52" width="32" height="6" fill="#9d968a"></rect>
      <rect x="16" y="52" width="32" height="6" fill="none" stroke="#37312b" stroke-width="1.8"></rect><path d="M20 52 L23 34 L29 34 L28 52 Z" fill="#9d968a"></path>
      <path d="M36 52 L35 34 L41 34 L44 52 Z" fill="#9d968a"></path>
      <path d="M20 52 L23 34 L29 34 L28 52 Z" fill="none" stroke="#37312b" stroke-width="1.8" stroke-linejoin="round"></path>
      <path d="M36 52 L35 34 L41 34 L44 52 Z" fill="none" stroke="#37312b" stroke-width="1.8" stroke-linejoin="round"></path><path d="M45.5 49 L45.5 58 M50.5 49 L50.5 58" stroke="#37312b" stroke-width="1.2" opacity="0.7" stroke-linecap="round"></path>
    <path d="M45.5 52 L50.5 52" stroke="#37312b" stroke-width="1" opacity="0.65"></path>
    <path d="M44 49 L51.5 49" stroke="#37312b" stroke-width="2" opacity="0.75" stroke-linecap="round"></path></svg>