<svg xmlns="http://www.w3.org/2000/svg" width="64" height="64" viewBox="0 0 64 64"><g transform="translate(32 32) scale(0.45) translate(-32 -32)">
    
    <path d="M10 38&#xA;             Q7 24 18 17 Q15 6 24 13 Q27 2 32 11 Q37 2 40 13 Q49 6 46 17&#xA;             Q57 24 54 38 Q54 55 32 57 Q10 55 10 38 Z" fill="#d4351a" stroke="#7a1e06" stroke-width="2" stroke-linejoin="round"></path>
    
    <path d="M16 38&#xA;             Q14 27 22 21 Q21 13 27 18 Q29 9 32 16 Q35 9 37 18 Q43 13 42 21&#xA;             Q50 27 48 38 Q48 50 32 51 Q16 50 16 38 Z" fill="#ff7a1a"></path>
    
    <circle cx="32" cy="35" r="10.5" fill="#ffd24a"></circle>
    <circle cx="32" cy="35" r="10.5" fill="none" stroke="#ff7a1a" stroke-width="2" opacity="0.55"></circle>
    <ellipse cx="29" cy="31" rx="3.2" ry="4" fill="#fff2bf" opacity="0.85"></ellipse>
    
    <circle cx="24" cy="8" r="1.8" fill="#ff7a1a"></circle>
    <circle cx="40" cy="7" r="1.5" fill="#ffd24a"></circle>
    <circle cx="32" cy="4" r="1.3" fill="#ff7a1a"></circle>
  </g></svg>