<svg xmlns="http://www.w3.org/2000/svg" width="64" height="64" viewBox="0 0 64 64"><ellipse cx="32" cy="60" rx="18" ry="3" fill="#3f4a52" opacity="0.14"></ellipse><path d="M14 58 L26 20 L34 58 Z" fill="#3f4a52" opacity="0.24"></path>
    <path d="M14 58 L26 20" fill="none" stroke="#3f4a52" stroke-width="1.3" opacity="0.55" stroke-linecap="round"></path><path d="M23 58 L26 34 L38 34 L41 58 Z" fill="#e7e0d0"></path>
      <path d="M35 34 L38 34 L41 58 L37 58 Z" fill="#3f4a52" opacity="0.16"></path>
      <path d="M23 58 L26 34 L38 34 L41 58 Z" fill="none" stroke="#3f4a52" stroke-width="2" stroke-linejoin="round"></path>
      <path d="M25 50 L39 50 M25.8 42 L38.2 42" stroke="#3f4a52" stroke-width="1.4" opacity="0.35"></path><path d="M26 34 L28 20 L36 20 L38 34 Z" fill="#e7e0d0"></path>
      <path d="M32.5 20 L36 20 L38 34 L34.5 34 Z" fill="#3f4a52" opacity="0.16"></path>
      <path d="M26 34 L28 20 L36 20 L38 34 Z" fill="none" stroke="#3f4a52" stroke-width="2" stroke-linejoin="round"></path>
      <rect x="24" y="19" width="16" height="2.6" fill="#ffb648"></rect>
      <rect x="24" y="19" width="16" height="2.6" fill="none" stroke="#3f4a52" stroke-width="1"></rect><path d="M28 20 L36 20" stroke="#3f4a52" stroke-width="2" opacity="0.8" stroke-linecap="round"></path><path d="M39.5 19 L39.5 58 M44.5 19 L44.5 58" stroke="#3f4a52" stroke-width="1.2" opacity="0.7" stroke-linecap="round"></path>
    <path d="M39.5 22 L44.5 22" stroke="#3f4a52" stroke-width="1" opacity="0.65"></path><path d="M39.5 29 L44.5 29" stroke="#3f4a52" stroke-width="1" opacity="0.65"></path><path d="M39.5 36 L44.5 36" stroke="#3f4a52" stroke-width="1" opacity="0.65"></path><path d="M39.5 43 L44.5 43" stroke="#3f4a52" stroke-width="1" opacity="0.65"></path><path d="M39.5 50 L44.5 50" stroke="#3f4a52" stroke-width="1" opacity="0.65"></path><path d="M39.5 57 L44.5 57" stroke="#3f4a52" stroke-width="1" opacity="0.65"></path>
    <path d="M38 19 L45.5 19" stroke="#3f4a52" stroke-width="2" opacity="0.75" stroke-linecap="round"></path></svg>