<svg xmlns="http://www.w3.org/2000/svg" width="64" height="64" viewBox="0 0 64 64"><ellipse cx="32" cy="60" rx="28" ry="3" fill="#5c5548" opacity="0.14"></ellipse><path d="M2 58 L9 22 L17 58 Z" fill="#5c5548" opacity="0.24"></path>
    <path d="M2 58 L9 22" fill="none" stroke="#5c5548" stroke-width="1.3" opacity="0.55" stroke-linecap="round"></path><rect x="6" y="52" width="52" height="6" fill="#ece4d2"></rect>
      <rect x="8" y="48" width="48" height="4" fill="#ece4d2"></rect>
      <rect x="6" y="52" width="52" height="6" fill="none" stroke="#5c5548" stroke-width="1.6"></rect>
      <rect x="8" y="48" width="48" height="4" fill="none" stroke="#5c5548" stroke-width="1.4"></rect><rect x="11" y="28" width="4.4" height="20" fill="#ece4d2"></rect>
        <rect x="11" y="28" width="4.4" height="20" fill="none" stroke="#5c5548" stroke-width="1.3"></rect>
        <path d="M11 32 L15.4 32 M11 38 L15.4 38 M11 44 L15.4 44" stroke="#5c5548" stroke-width="0.7" opacity="0.3"></path><rect x="18" y="28" width="4.4" height="20" fill="#ece4d2"></rect>
        <rect x="18" y="28" width="4.4" height="20" fill="none" stroke="#5c5548" stroke-width="1.3"></rect>
        <path d="M18 32 L22.4 32 M18 38 L22.4 38 M18 44 L22.4 44" stroke="#5c5548" stroke-width="0.7" opacity="0.3"></path><rect x="25" y="28" width="4.4" height="20" fill="#ece4d2"></rect>
        <rect x="25" y="28" width="4.4" height="20" fill="none" stroke="#5c5548" stroke-width="1.3"></rect>
        <path d="M25 32 L29.4 32 M25 38 L29.4 38 M25 44 L29.4 44" stroke="#5c5548" stroke-width="0.7" opacity="0.3"></path><rect x="32" y="28" width="4.4" height="20" fill="#ece4d2"></rect>
        <rect x="32" y="28" width="4.4" height="20" fill="none" stroke="#5c5548" stroke-width="1.3"></rect>
        <path d="M32 32 L36.4 32 M32 38 L36.4 38 M32 44 L36.4 44" stroke="#5c5548" stroke-width="0.7" opacity="0.3"></path><rect x="39" y="28" width="4.4" height="20" fill="#ece4d2"></rect>
        <rect x="39" y="28" width="4.4" height="20" fill="none" stroke="#5c5548" stroke-width="1.3"></rect>
        <path d="M39 32 L43.4 32 M39 38 L43.4 38 M39 44 L43.4 44" stroke="#5c5548" stroke-width="0.7" opacity="0.3"></path><rect x="46" y="28" width="4.4" height="20" fill="#ece4d2"></rect>
        <rect x="46" y="28" width="4.4" height="20" fill="none" stroke="#5c5548" stroke-width="1.3"></rect>
        <path d="M46 32 L50.4 32 M46 38 L50.4 38 M46 44 L50.4 44" stroke="#5c5548" stroke-width="0.7" opacity="0.3"></path><rect x="9" y="22" width="46" height="6" fill="#ece4d2"></rect>
      <rect x="46" y="22" width="9" height="6" fill="#5c5548" opacity="0.16"></rect>
      <rect x="9" y="22" width="46" height="6" fill="none" stroke="#5c5548" stroke-width="1.8"></rect>
      <path d="M9 25 L55 25" stroke="#5c5548" stroke-width="0.8" opacity="0.35"></path><path d="M9 22 L55 22" stroke="#5c5548" stroke-width="2.2" opacity="0.8" stroke-linecap="round"></path><path d="M58.5 21 L58.5 58 M63.5 21 L63.5 58" stroke="#5c5548" stroke-width="1.2" opacity="0.7" stroke-linecap="round"></path>
    <path d="M58.5 24 L63.5 24" stroke="#5c5548" stroke-width="1" opacity="0.65"></path><path d="M58.5 31 L63.5 31" stroke="#5c5548" stroke-width="1" opacity="0.65"></path><path d="M58.5 38 L63.5 38" stroke="#5c5548" stroke-width="1" opacity="0.65"></path><path d="M58.5 45 L63.5 45" stroke="#5c5548" stroke-width="1" opacity="0.65"></path><path d="M58.5 52 L63.5 52" stroke="#5c5548" stroke-width="1" opacity="0.65"></path>
    <path d="M57 21 L64.5 21" stroke="#5c5548" stroke-width="2" opacity="0.75" stroke-linecap="round"></path></svg>