<svg xmlns="http://www.w3.org/2000/svg" width="64" height="64" viewBox="0 0 64 64"><ellipse cx="32" cy="60" rx="18" ry="3" fill="#3f4a52" opacity="0.14"></ellipse><path d="M23 58 L26 34 L38 34 L41 58 Z" fill="#e7e0d0"></path>
      <path d="M35 34 L38 34 L41 58 L37 58 Z" fill="#3f4a52" opacity="0.16"></path>
      <path d="M23 58 L26 34 L38 34 L41 58 Z" fill="none" stroke="#3f4a52" stroke-width="2" stroke-linejoin="round"></path>
      <path d="M25 50 L39 50 M25.8 42 L38.2 42" stroke="#3f4a52" stroke-width="1.4" opacity="0.35"></path><path d="M26 34 L28 20 L36 20 L38 34 Z" fill="#e7e0d0"></path>
      <path d="M32.5 20 L36 20 L38 34 L34.5 34 Z" fill="#3f4a52" opacity="0.16"></path>
      <path d="M26 34 L28 20 L36 20 L38 34 Z" fill="none" stroke="#3f4a52" stroke-width="2" stroke-linejoin="round"></path>
      <rect x="24" y="19" width="16" height="2.6" fill="#ffb648"></rect>
      <rect x="24" y="19" width="16" height="2.6" fill="none" stroke="#3f4a52" stroke-width="1"></rect><rect x="27" y="10" width="10" height="9" fill="#ffb648" opacity="0.9"></rect>
      <rect x="27" y="10" width="10" height="9" fill="none" stroke="#3f4a52" stroke-width="1.6"></rect>
      <path d="M27 10 L37 10" stroke="#3f4a52" stroke-width="1" opacity="0.3"></path>
      <path d="M29 6 L35 6 L37 10 L27 10 Z" fill="#e7e0d0"></path>
      <path d="M29 6 L35 6 L37 10 L27 10 Z" fill="none" stroke="#3f4a52" stroke-width="1.6" stroke-linejoin="round"></path>
      <circle cx="32" cy="3.2" r="1.8" fill="#ffb648"></circle>
      <path d="M27 13 L4 8 L27 16 Z" fill="#ffb648" opacity="0.35"></path>
      <path d="M37 13 L60 8 L37 16 Z" fill="#ffb648" opacity="0.35"></path></svg>