<svg xmlns="http://www.w3.org/2000/svg" width="64" height="64" viewBox="0 0 64 64"><ellipse cx="32" cy="60" rx="26" ry="3" fill="#2b2521" opacity="0.14"></ellipse><rect x="10" y="34" width="44" height="24" fill="#6e6459"></rect>
      <rect x="42" y="34" width="12" height="24" fill="#2b2521" opacity="0.16"></rect>
      <rect x="10" y="34" width="44" height="24" fill="none" stroke="#2b2521" stroke-width="2"></rect>
      <rect x="27" y="44" width="10" height="14" fill="#ff7a33" opacity="0.85"></rect>
      <rect x="27" y="44" width="10" height="14" fill="none" stroke="#2b2521" stroke-width="1.2"></rect><rect x="15" y="40" width="8" height="6" fill="#ff7a33" opacity="0.7"></rect>
      <rect x="15" y="40" width="8" height="6" fill="none" stroke="#2b2521" stroke-width="1"></rect>
      <path d="M43 56 L51 56 L49 52 L45 52 Z" fill="#2b2521"></path>
      <rect x="46.5" y="52" width="2" height="4" fill="#2b2521"></rect><path d="M6 34 L32 18 L58 34 Z" fill="#6e6459"></path>
      <path d="M32 18 L58 34 L50 34 L32 24 Z" fill="#2b2521" opacity="0.16"></path>
      <path d="M6 34 L32 18 L58 34 Z" fill="none" stroke="#2b2521" stroke-width="2" stroke-linejoin="round"></path><rect x="40" y="8" width="8" height="16" fill="#6e6459"></rect>
      <rect x="40" y="8" width="8" height="16" fill="none" stroke="#2b2521" stroke-width="1.8"></rect>
      <rect x="38.5" y="6" width="11" height="3" fill="#2b2521"></rect><g opacity="0.85">
        <circle cx="44" cy="3" r="3.4" fill="#c9c2b8"></circle>
        <circle cx="40" cy="0" r="2.6" fill="#c9c2b8"></circle>
        <circle cx="48" cy="-1" r="2.2" fill="#c9c2b8"></circle>
      </g><rect x="29" y="48" width="6" height="10" fill="#ff7a33"></rect>
      <ellipse cx="32" cy="53" rx="4.5" ry="6" fill="#ff7a33" opacity="0.55"></ellipse></svg>