<svg xmlns="http://www.w3.org/2000/svg" width="64" height="64" viewBox="0 0 64 64"><ellipse cx="32" cy="60" rx="26" ry="3" fill="#2b2521" opacity="0.14"></ellipse><path d="M2 58 L14 34 L22 58 Z" fill="#2b2521" opacity="0.24"></path>
    <path d="M2 58 L14 34" fill="none" stroke="#2b2521" stroke-width="1.3" opacity="0.55" stroke-linecap="round"></path><rect x="10" y="34" width="44" height="24" fill="#6e6459"></rect>
      <rect x="42" y="34" width="12" height="24" fill="#2b2521" opacity="0.16"></rect>
      <rect x="10" y="34" width="44" height="24" fill="none" stroke="#2b2521" stroke-width="2"></rect>
      <rect x="27" y="44" width="10" height="14" fill="#ff7a33" opacity="0.85"></rect>
      <rect x="27" y="44" width="10" height="14" fill="none" stroke="#2b2521" stroke-width="1.2"></rect><rect x="15" y="40" width="8" height="6" fill="#ff7a33" opacity="0.7"></rect>
      <rect x="15" y="40" width="8" height="6" fill="none" stroke="#2b2521" stroke-width="1"></rect>
      <path d="M43 56 L51 56 L49 52 L45 52 Z" fill="#2b2521"></path>
      <rect x="46.5" y="52" width="2" height="4" fill="#2b2521"></rect><path d="M55.5 33 L55.5 58 M60.5 33 L60.5 58" stroke="#2b2521" stroke-width="1.2" opacity="0.7" stroke-linecap="round"></path>
    <path d="M55.5 36 L60.5 36" stroke="#2b2521" stroke-width="1" opacity="0.65"></path><path d="M55.5 43 L60.5 43" stroke="#2b2521" stroke-width="1" opacity="0.65"></path><path d="M55.5 50 L60.5 50" stroke="#2b2521" stroke-width="1" opacity="0.65"></path><path d="M55.5 57 L60.5 57" stroke="#2b2521" stroke-width="1" opacity="0.65"></path>
    <path d="M54 33 L61.5 33" stroke="#2b2521" stroke-width="2" opacity="0.75" stroke-linecap="round"></path></svg>