<svg xmlns="http://www.w3.org/2000/svg" width="64" height="64" viewBox="0 0 64 64"><ellipse cx="32" cy="60" rx="18" ry="3" fill="#3f4a52" opacity="0.14"></ellipse><path d="M14 58 L26 34 L34 58 Z" fill="#3f4a52" opacity="0.24"></path>
    <path d="M14 58 L26 34" fill="none" stroke="#3f4a52" stroke-width="1.3" opacity="0.55" stroke-linecap="round"></path><path d="M23 58 L26 34 L38 34 L41 58 Z" fill="#e7e0d0"></path>
      <path d="M35 34 L38 34 L41 58 L37 58 Z" fill="#3f4a52" opacity="0.16"></path>
      <path d="M23 58 L26 34 L38 34 L41 58 Z" fill="none" stroke="#3f4a52" stroke-width="2" stroke-linejoin="round"></path>
      <path d="M25 50 L39 50 M25.8 42 L38.2 42" stroke="#3f4a52" stroke-width="1.4" opacity="0.35"></path><path d="M42.5 33 L42.5 58 M47.5 33 L47.5 58" stroke="#3f4a52" stroke-width="1.2" opacity="0.7" stroke-linecap="round"></path>
    <path d="M42.5 36 L47.5 36" stroke="#3f4a52" stroke-width="1" opacity="0.65"></path><path d="M42.5 43 L47.5 43" stroke="#3f4a52" stroke-width="1" opacity="0.65"></path><path d="M42.5 50 L47.5 50" stroke="#3f4a52" stroke-width="1" opacity="0.65"></path><path d="M42.5 57 L47.5 57" stroke="#3f4a52" stroke-width="1" opacity="0.65"></path>
    <path d="M41 33 L48.5 33" stroke="#3f4a52" stroke-width="2" opacity="0.75" stroke-linecap="round"></path></svg>