<svg xmlns="http://www.w3.org/2000/svg" width="64" height="64" viewBox="0 0 64 64"><ellipse cx="32" cy="60" rx="24" ry="3" fill="#38414a" opacity="0.14"></ellipse><rect x="14" y="40" width="36" height="18" fill="#aab4bd"></rect>
    <rect x="41.36" y="40" width="8.64" height="18" fill="#38414a" opacity="0.16"></rect>
    <rect x="14" y="40" width="36" height="18" fill="none" stroke="#38414a" stroke-width="2" stroke-linejoin="round"></rect>
    <path d="M14 49 L50 49" stroke="#38414a" stroke-width="1" opacity="0.35"></path><rect x="19" y="23" width="26" height="17" fill="#aab4bd"></rect>
    <rect x="38.76" y="23" width="6.24" height="17" fill="#38414a" opacity="0.16"></rect>
    <rect x="19" y="23" width="26" height="17" fill="none" stroke="#38414a" stroke-width="2" stroke-linejoin="round"></rect>
    <path d="M19 31.5 L45 31.5" stroke="#38414a" stroke-width="1" opacity="0.35"></path><path d="M19 23 A13 15 0 0 1 45 23 Z" fill="#aab4bd"></path>
      <path d="M19 23 A13 15 0 0 1 45 23 Z" fill="none" stroke="#38414a" stroke-width="2" stroke-linejoin="round"></path>
      <path d="M32 10 L32 23" stroke="#38414a" stroke-width="1" opacity="0.3"></path>
      <path d="M32 10 L38 22 L26 22 Z" fill="#c99a3f" opacity="0.9"></path>
      <path d="M32 10 L38 22 L26 22 Z" fill="none" stroke="#38414a" stroke-width="1.4" stroke-linejoin="round"></path>
      <rect x="18" y="22.5" width="28" height="2.4" fill="#c99a3f"></rect>
      <path d="M35 13 L44 6" stroke="#c99a3f" stroke-width="3" stroke-linecap="round"></path>
      <circle cx="44" cy="6" r="2" fill="#c99a3f"></circle></svg>