<svg xmlns="http://www.w3.org/2000/svg" width="64" height="64" viewBox="0 0 64 64">
  <path d="M6 58 L8 30 L18 18 L32 12 L48 18 L56 28 L58 58 Z" fill="#8a7a6a"></path>
  <path d="M6 58 L8 30 L18 18 L32 12 L48 18 L56 28 L58 58 Z" fill="none" stroke="#3a2e24" stroke-width="2" stroke-linejoin="round"></path>
  <path d="M16 30 L20 22 M22 38 L18 32 L24 30 M42 22 L46 30 M40 38 L48 34" stroke="#3a2e24" stroke-width="1.5" fill="none" opacity="0.55" stroke-linecap="round"></path>
  <path d="M20 58 L20 42 Q20 32 32 32 Q44 32 44 42 L44 58 Z" fill="#0a0808"></path>
  <path d="M20 58 L20 42 Q20 32 32 32 Q44 32 44 42 L44 58 Z" fill="none" stroke="#3a2e24" stroke-width="1.8" stroke-linejoin="round"></path>
  <path d="M24 32 L26 36 L28 32 Z" fill="#0a0808"></path>
  <path d="M36 32 L38 36 L40 32 Z" fill="#0a0808"></path>
  <path d="M16 58 L22 54 L26 58 Z" fill="#3a2e24"></path>
  <path d="M42 58 L46 54 L50 58 Z" fill="#3a2e24"></path>
</svg>