<svg xmlns="http://www.w3.org/2000/svg" width="64" height="64" viewBox="0 0 64 64">
  
    
    <ellipse cx="32" cy="58" rx="28" ry="4.5" fill="#2a221c" opacity="0.25"></ellipse>
    
    <path d="M6 58 L22 22 L32 22 L32 58 Z" fill="#7a6a5c"></path>
    
    <path d="M32 58 L32 22 L42 22 L58 58 Z" fill="#574a40"></path>
    
    <path d="M6 58 L22 22 L42 22 L58 58 Z" fill="none" stroke="#2a221c" stroke-width="2" stroke-linejoin="round"></path>
    
    <path d="M16 44 L30 44 M34 44 L50 44 M20 34 L30 34 M34 34 L46 34" stroke="#2a221c" stroke-width="1.1" opacity="0.35"></path>
    
    <path d="M10 58 L15 53 L20 58 Z" fill="#2a221c"></path>
    <path d="M46 58 L51 54 L56 58 Z" fill="#2a221c"></path>
  <ellipse cx="32" cy="22" rx="11" ry="3.6" fill="#574a40" stroke="#2a221c" stroke-width="2"></ellipse>
  
  <ellipse cx="32" cy="22" rx="8" ry="2.4" fill="#2a221c"></ellipse>
  
  <path d="M30 24 Q28 38 24 56" stroke="#2a221c" stroke-width="2" fill="none" opacity="0.5" stroke-linecap="round"></path>
  <path d="M36 24 Q40 36 44 54" stroke="#2a221c" stroke-width="1.6" fill="none" opacity="0.4" stroke-linecap="round"></path>
</svg>