<svg xmlns="http://www.w3.org/2000/svg" width="64" height="64" viewBox="0 0 64 64">
  
  <g opacity="0.92">
    <circle cx="30" cy="8" r="9" fill="#8a8278"></circle>
    <circle cx="40" cy="11" r="7" fill="#5a534a"></circle>
    <circle cx="24" cy="14" r="6.5" fill="#5a534a"></circle>
    <circle cx="34" cy="16" r="7.5" fill="#8a8278"></circle>
    <circle cx="44" cy="18" r="5" fill="#5a534a"></circle>
  </g>
  
    
    <ellipse cx="32" cy="58" rx="28" ry="4.5" fill="#2a221c" opacity="0.25"></ellipse>
    
    <path d="M6 58 L22 22 L32 22 L32 58 Z" fill="#7a6a5c"></path>
    
    <path d="M32 58 L32 22 L42 22 L58 58 Z" fill="#574a40"></path>
    
    <path d="M6 58 L22 22 L42 22 L58 58 Z" fill="none" stroke="#2a221c" stroke-width="2" stroke-linejoin="round"></path>
    
    <path d="M16 44 L30 44 M34 44 L50 44 M20 34 L30 34 M34 34 L46 34" stroke="#2a221c" stroke-width="1.1" opacity="0.35"></path>
    
    <path d="M10 58 L15 53 L20 58 Z" fill="#2a221c"></path>
    <path d="M46 58 L51 54 L56 58 Z" fill="#2a221c"></path>
  
  <path d="M30 22 Q27 38 23 56" stroke="#d4351a" stroke-width="3.4" fill="none" stroke-linecap="round"></path>
  <path d="M30 22 Q27 38 23 56" stroke="#ff7a1a" stroke-width="1.6" fill="none" stroke-linecap="round"></path>
  <path d="M37 22 Q41 36 45 54" stroke="#d4351a" stroke-width="3" fill="none" stroke-linecap="round"></path>
  <path d="M37 22 Q41 36 45 54" stroke="#ff7a1a" stroke-width="1.4" fill="none" stroke-linecap="round"></path>
  <ellipse cx="32" cy="22" rx="11" ry="3.6" fill="#574a40" stroke="#2a221c" stroke-width="2"></ellipse>
  
  <ellipse cx="32" cy="22" rx="9" ry="2.8" fill="#d4351a"></ellipse>
  <ellipse cx="32" cy="21.5" rx="6.5" ry="2" fill="#ff7a1a"></ellipse>
  <ellipse cx="32" cy="21" rx="3.6" ry="1.3" fill="#ffd24a"></ellipse>
  
  <circle cx="18" cy="14" r="2.6" fill="#ff7a1a" stroke="#7a1e06" stroke-width="1"></circle>
  <circle cx="48" cy="10" r="2.2" fill="#ff7a1a" stroke="#7a1e06" stroke-width="1"></circle>
  <circle cx="50" cy="22" r="1.8" fill="#ffd24a"></circle>
  <circle cx="14" cy="24" r="1.6" fill="#ffd24a"></circle>
</svg>