<svg xmlns="http://www.w3.org/2000/svg" width="512" height="512" viewBox="0 0 64 64"><ellipse cx="32" cy="60" rx="28" ry="3" fill="#6e5230" opacity="0.14"></ellipse>
    <rect x="6" y="47" width="52" height="11" fill="#d8b878"></rect>
    <rect x="44.480000000000004" y="47" width="13.52" height="11" fill="#6e5230" opacity="0.16"></rect>
    <rect x="6" y="47" width="52" height="11" fill="none" stroke="#6e5230" stroke-width="2" stroke-linejoin="round"></rect>
    <path d="M6 52.5 L58 52.5" stroke="#6e5230" stroke-width="1" opacity="0.4"></path>
    <path d="M23.16 47 L23.16 52.5 M40.32 47 L40.32 52.5 M14.32 52.5 L14.32 58 M32 52.5 L32 58 M49.16 52.5 L49.16 58" stroke="#6e5230" stroke-width="0.9" opacity="0.32"></path>
    <rect x="13" y="36" width="38" height="11" fill="#d8b878"></rect>
    <rect x="41.12" y="36" width="9.88" height="11" fill="#6e5230" opacity="0.16"></rect>
    <rect x="13" y="36" width="38" height="11" fill="none" stroke="#6e5230" stroke-width="2" stroke-linejoin="round"></rect>
    <path d="M13 41.5 L51 41.5" stroke="#6e5230" stroke-width="1" opacity="0.4"></path>
    <path d="M25.54 36 L25.54 41.5 M38.08 36 L38.08 41.5 M19.08 41.5 L19.08 47 M32 41.5 L32 47 M44.54 41.5 L44.54 47" stroke="#6e5230" stroke-width="0.9" opacity="0.32"></path>
    <rect x="20" y="25" width="24" height="11" fill="#d8b878"></rect>
    <rect x="37.76" y="25" width="6.24" height="11" fill="#6e5230" opacity="0.16"></rect>
    <rect x="20" y="25" width="24" height="11" fill="none" stroke="#6e5230" stroke-width="2" stroke-linejoin="round"></rect>
    <path d="M20 30.5 L44 30.5" stroke="#6e5230" stroke-width="1" opacity="0.4"></path>
    <path d="M27.92 25 L27.92 30.5 M35.84 25 L35.84 30.5 M23.84 30.5 L23.84 36 M32 30.5 L32 36 M39.92 30.5 L39.92 36" stroke="#6e5230" stroke-width="0.9" opacity="0.32"></path>
    <rect x="26" y="15" width="12" height="10" fill="#d8b878"></rect>
    <rect x="34.88" y="15" width="3.12" height="10" fill="#6e5230" opacity="0.16"></rect>
    <rect x="26" y="15" width="12" height="10" fill="none" stroke="#6e5230" stroke-width="2" stroke-linejoin="round"></rect>
    <path d="M26 20 L38 20" stroke="#6e5230" stroke-width="1" opacity="0.4"></path>
    <path d="M29.96 15 L29.96 20 M33.92 15 L33.92 20 M27.92 20 L27.92 25 M32 20 L32 25 M35.96 20 L35.96 25" stroke="#6e5230" stroke-width="0.9" opacity="0.32"></path>
      <path d="M32 7 L39 15 L25 15 Z" fill="#f2c84b"></path>
      <path d="M32 7 L39 15 L25 15 Z" fill="none" stroke="#6e5230" stroke-width="1.8" stroke-linejoin="round"></path>
      <path d="M32 7 L28.5 11" stroke="#fff" stroke-width="1.2" opacity="0.55" stroke-linecap="round"></path>
      <path d="M25 15 L39 15" stroke="#6e5230" stroke-width="1" opacity="0.4"></path></svg>