<svg xmlns="http://www.w3.org/2000/svg" width="512" height="512" viewBox="0 0 64 64"><ellipse cx="32" cy="60" rx="28" ry="3" fill="#6e5230" opacity="0.14"></ellipse>
    <path d="M2 58 L6 47 L15 58 Z" fill="#6e5230" opacity="0.28"></path>
    <path d="M2 58 L6 47" fill="none" stroke="#6e5230" stroke-width="1.4" opacity="0.6" stroke-linecap="round"></path>
    <path d="M5 57 L5 49" fill="none" stroke="#6e5230" stroke-width="1" opacity="0.45" stroke-dasharray="2 2.5"></path>
    <rect x="6" y="47" width="52" height="11" fill="#d8b878"></rect>
    <rect x="44.480000000000004" y="47" width="13.52" height="11" fill="#6e5230" opacity="0.16"></rect>
    <rect x="6" y="47" width="52" height="11" fill="none" stroke="#6e5230" stroke-width="2" stroke-linejoin="round"></rect>
    <path d="M6 52.5 L58 52.5" stroke="#6e5230" stroke-width="1" opacity="0.4"></path>
    <path d="M23.16 47 L23.16 52.5 M40.32 47 L40.32 52.5 M14.32 52.5 L14.32 58 M32 52.5 L32 58 M49.16 52.5 L49.16 58" stroke="#6e5230" stroke-width="0.9" opacity="0.32"></path>
    <path d="M53.5 45 L53.5 58 M59 45 L59 58" stroke="#6e5230" stroke-width="1.3" opacity="0.75" stroke-linecap="round"></path>
    <path d="M53.5 49 L59 49" stroke="#6e5230" stroke-width="1.1" opacity="0.7"></path><path d="M53.5 56 L59 56" stroke="#6e5230" stroke-width="1.1" opacity="0.7"></path>
    <path d="M53.5 58 L59 49" stroke="#6e5230" stroke-width="1" opacity="0.5"></path>
    <path d="M51.5 45 L60 45" stroke="#6e5230" stroke-width="2.2" opacity="0.8" stroke-linecap="round"></path></svg>